<svg width="37" height="46" viewBox="0 0 37 46" fill="none" xmlns="http://www.w3.org/2000/svg">
<path d="M30.8582 27.3105C29.393 23.8645 27.2457 22.1396 24.6087 21.6621C24.2813 21.6015 23.8686 21.5501 23.3998 21.5055C21.9926 21.3698 19.968 23.0669 18.0201 23.0669C15.4234 23.0669 12.9005 21.4227 11.5817 21.6621C8.94622 22.1396 6.79653 23.8645 5.33136 27.3105C5.33136 27.3105 2.77433 33.0321 2.40318 35.0669C1.9926 37.3043 2.40318 44.1641 2.40318 44.1641C2.40318 45.0091 3.51747 45.6971 4.89168 45.6971C6.26827 45.6971 7.38212 45.0091 7.38212 44.1641V43.015H28.8068V44.1641C28.8068 45.0091 29.9213 45.6971 31.2985 45.6971C32.674 45.6971 33.7885 45.0091 33.7885 44.1641C33.7885 44.1641 34.1946 37.3043 33.7885 35.0669C33.4161 33.0325 30.8582 27.3105 30.8582 27.3105ZM7.15366 40.6475C6.11201 40.6475 5.26412 39.815 5.26412 38.7935C5.26412 37.7703 6.11201 36.9416 7.15366 36.9416C8.19617 36.9416 9.04212 37.7703 9.04212 38.7935C9.04212 39.815 8.19617 40.6475 7.15366 40.6475ZM8.01987 30.8253C8.01987 30.8253 9.53633 26.1507 10.5118 25.1954C11.486 24.2386 24.7048 24.2386 25.6779 25.1954C26.6532 26.1507 28.1697 30.8253 28.1697 30.8253C28.1697 30.8253 20.6193 30.1889 18.0939 30.1889C15.5711 30.1889 8.01987 30.8253 8.01987 30.8253ZM29.0363 40.6475C27.997 40.6475 27.15 39.815 27.15 38.7935C27.15 37.7703 27.9966 36.9416 29.0363 36.9416C30.0801 36.9416 30.9291 37.7703 30.9291 38.7935C30.9291 39.815 30.0801 40.6475 29.0363 40.6475Z" fill="black"/>
<mask id="mask0_2177_33" style="mask-type:luminance" maskUnits="userSpaceOnUse" x="4" y="0" width="28" height="29">
<path d="M4.30469 0H31.8924V28.2927H4.30469V0Z" fill="white"/>
</mask>
<g mask="url(#mask0_2177_33)">
<path fill-rule="evenodd" clip-rule="evenodd" d="M25.7638 28.2909H10.4418C7.06751 28.2909 4.33008 25.6056 4.33008 22.3167V12.5748C4.33008 9.26515 7.06751 6.57985 10.4418 6.57985H17.445L17.4661 4.29022C16.5536 4.01947 15.8745 3.18693 15.8745 2.18785C15.8745 0.98036 16.8933 0.00219727 18.1239 0.00219727C19.3548 0.00219727 20.3736 0.98036 20.3736 2.18785C20.3736 3.18693 19.6732 4.04039 18.7395 4.31093L18.7182 6.57985H25.7638C29.1168 6.57985 31.8544 9.26515 31.8544 12.5748V22.3376C31.8544 25.6265 29.1168 28.2909 25.7638 28.2909ZM12.3519 18.8405C10.5479 18.8405 9.12603 17.4457 9.12603 15.6974C9.12603 13.9279 10.5479 12.5334 12.3519 12.5334C14.1556 12.5334 15.5561 13.9279 15.5561 15.6974C15.5561 17.4457 14.1556 18.8405 12.3519 18.8405ZM12.3519 13.7823C11.2483 13.7823 10.3994 14.6148 10.3994 15.6974C10.3994 16.7588 11.2483 17.5916 12.3519 17.5916C13.434 17.5916 14.3041 16.7588 14.3041 15.6974C14.3041 14.6148 13.434 13.7823 12.3519 13.7823ZM23.8751 18.7156C22.0714 18.7156 20.6282 17.3001 20.6282 15.5516C20.6282 13.803 22.0714 12.3875 23.8751 12.3875C25.6364 12.3875 27.0796 13.803 27.0796 15.5516C27.0796 17.3001 25.6364 18.7156 23.8751 18.7156ZM23.8751 13.6364C22.7716 13.6364 21.9015 14.5108 21.9015 15.5516C21.9015 16.6132 22.7716 17.4874 23.8751 17.4874C24.9573 17.4874 25.8063 16.6132 25.8063 15.5516C25.8063 14.4692 24.9362 13.6364 23.8751 13.6364ZM17.8694 22.5042C16.6598 22.5042 15.5986 21.9422 15.0044 21.4425C14.7285 21.2134 14.7074 20.7972 14.9408 20.5681C15.1742 20.3185 15.5561 20.2769 15.832 20.5265C16.0232 20.693 18.0204 21.4425 19.6307 20.5474C19.8855 20.3185 20.2674 20.3185 20.5433 20.5681C20.7767 20.8389 20.7767 21.2134 20.5221 21.4632C19.6307 22.2127 18.7182 22.5042 17.8694 22.5042Z" fill="black"/>
</g>
<mask id="mask1_2177_33" style="mask-type:luminance" maskUnits="userSpaceOnUse" x="0" y="11" width="4" height="11">
<path d="M0 11.8298H3.14651V21.6233H0V11.8298Z" fill="white"/>
</mask>
<g mask="url(#mask1_2177_33)">
<path fill-rule="evenodd" clip-rule="evenodd" d="M3.05599 21.6088H2.80123C1.27335 21.6088 0 20.3806 0 18.8609V14.6145C0 13.0951 1.27335 11.8459 2.80123 11.8459H3.09845C3.07711 12.0751 3.05599 12.3249 3.05599 12.5745V21.6088Z" fill="black"/>
</g>
<mask id="mask2_2177_33" style="mask-type:luminance" maskUnits="userSpaceOnUse" x="33" y="11" width="4" height="11">
<path d="M33.0508 11.7759H36.2244V21.6234H33.0508V11.7759Z" fill="white"/>
</mask>
<g mask="url(#mask2_2177_33)">
<path fill-rule="evenodd" clip-rule="evenodd" d="M33.3829 21.6092H33.1284V12.5749C33.1284 12.3044 33.1071 12.0546 33.0859 11.8257H33.3829C34.9533 11.8257 36.2266 13.0539 36.2266 14.5943V18.8614C36.2266 20.4017 34.9533 21.6092 33.3829 21.6092Z" fill="black"/>
</g>
</svg>
